<svg height="1000" width="1000">

<style>
#quad{
fill: transparent;
stroke: black
}
</style>

<text x="0" y="15" fill="red">I love SVG!</text>

  <defs>
    <marker id="arrowhead" markerWidth="10" markerHeight="7" refX="0" refY="3.5" orient="auto">
      <polygon points="0 0, 10 3.5, 0 7" />
    </marker>
  </defs>
  <line x1="50" y1="250" x2="450" y2="250" stroke="#000" stroke-width="3" marker-end="url(#arrowhead)" />
  <line x1="450" y1="250" x2="50" y2="250" stroke="#000" stroke-width="3" marker-end="url(#arrowhead)" />
  <line x1="250" y1="450" x2="250" y2="50" stroke="#000" stroke-width="3" marker-end="url(#arrowhead)" />
  <line x1="250" y1="50" x2="250" y2="450" stroke="#000" stroke-width="3" marker-end="url(#arrowhead)" />
<!-- The Box Graph -->
<line x1="250" y1="250" x2="450" y2="50" stroke="red" stroke-width="2" stroke-linecap="round"/>
<line x1="250" y1="250" x2="50" y2="50" stroke="red" stroke-width="2" stroke-linecap="round"/>
<line x1="250" y1="250" x2="450" y2="450" stroke="red" stroke-width="2" stroke-linecap="round"/>
<line x1="250" y1="250" x2="50" y2="450" stroke="red" stroke-width="2" stroke-linecap="round"/>

<!-- Q1 -->
<line x1="270" y1="230" x2="285" y2="230" stroke="red" stroke-width="2" stroke-linecap="round"/>
<line x1="290" y1="210" x2="305" y2="210" stroke="red" stroke-width="2" stroke-linecap="round"/>
<line x1="310" y1="190" x2="325" y2="190" stroke="red" stroke-width="2" stroke-linecap="round"/>
<line x1="330" y1="170" x2="345" y2="170" stroke="red" stroke-width="2" stroke-linecap="round"/>
<line x1="350" y1="150" x2="365" y2="150" stroke="red" stroke-width="2" stroke-linecap="round"/>
<line x1="370" y1="130" x2="385" y2="130" stroke="red" stroke-width="2" stroke-linecap="round"/>
<line x1="390" y1="110" x2="405" y2="110" stroke="red" stroke-width="2" stroke-linecap="round"/>
<line x1="410" y1="90" x2="425" y2="90" stroke="red" stroke-width="2" stroke-linecap="round"/>
<line x1="430" y1="70" x2="445" y2="70" stroke="red" stroke-width="2" stroke-linecap="round"/>


<!-- Q2 -->
<line x1="230" y1="230" x2="215" y2="230" stroke="red" stroke-width="2" stroke-linecap="round"/>
<line x1="210" y1="210" x2="195" y2="210" stroke="red" stroke-width="2" stroke-linecap="round"/>
<text x="175" y="215" fill="red">20</text>
<line x1="190" y1="190" x2="175" y2="190" stroke="red" stroke-width="2" stroke-linecap="round"/>
<line x1="170" y1="170" x2="155" y2="170" stroke="red" stroke-width="2" stroke-linecap="round"/>
<text x="135" y="175" fill="red">40</text>
<line x1="150" y1="150" x2="135" y2="150" stroke="red" stroke-width="2" stroke-linecap="round"/>
<line x1="130" y1="130" x2="115" y2="130" stroke="red" stroke-width="2" stroke-linecap="round"/>
<text x="95" y="135" fill="red">60</text>
<line x1="110" y1="110" x2="95" y2="110" stroke="red" stroke-width="2" stroke-linecap="round"/>
<line x1="90" y1="90" x2="75" y2="90" stroke="red" stroke-width="2" stroke-linecap="round"/>
<text x="55" y="95" fill="red">80</text>
<line x1="70" y1="70" x2="55" y2="70" stroke="red" stroke-width="2" stroke-linecap="round"/>

<!-- Q4 -->
<line x1="270" y1="270" x2="285" y2="270" stroke="red" stroke-width="2" stroke-linecap="round"/>
<line x1="290" y1="290" x2="305" y2="290" stroke="red" stroke-width="2" stroke-linecap="round"/>
<text x="310" y="295" fill="red">20</text>
<line x1="310" y1="310" x2="325" y2="310" stroke="red" stroke-width="2" stroke-linecap="round"/>
<line x1="330" y1="330" x2="345" y2="330" stroke="red" stroke-width="2" stroke-linecap="round"/>
<text x="350" y="335" fill="red">40</text>
<line x1="350" y1="350" x2="365" y2="350" stroke="red" stroke-width="2" stroke-linecap="round"/>
<line x1="370" y1="370" x2="385" y2="370" stroke="red" stroke-width="2" stroke-linecap="round"/>
<text x="390" y="375" fill="red">60</text>
<line x1="390" y1="390" x2="405" y2="390" stroke="red" stroke-width="2" stroke-linecap="round"/>
<line x1="410" y1="410" x2="425" y2="410" stroke="red" stroke-width="2" stroke-linecap="round"/>
<text x="430" y="415" fill="red">80</text>
<line x1="430" y1="430" x2="445" y2="430" stroke="red" stroke-width="2" stroke-linecap="round"/>
<!-- <line x1="450" y1="450" x2="465" y2="450" stroke="red" stroke-width="2" stroke-linecap="round"/> -->


<!-- Q3 -->
<line x1="230" y1="270" x2="215" y2="270" stroke="red" stroke-width="2" stroke-linecap="round"/>
<line x1="210" y1="290" x2="195" y2="290" stroke="red" stroke-width="2" stroke-linecap="round"/>
<line x1="190" y1="310" x2="175" y2="310" stroke="red" stroke-width="2" stroke-linecap="round"/>
<line x1="170" y1="330" x2="155" y2="330" stroke="red" stroke-width="2" stroke-linecap="round"/>
<line x1="150" y1="350" x2="135" y2="350" stroke="red" stroke-width="2" stroke-linecap="round"/>
<line x1="130" y1="370" x2="115" y2="370" stroke="red" stroke-width="2" stroke-linecap="round"/>
<line x1="110" y1="390" x2="95" y2="390" stroke="red" stroke-width="2" stroke-linecap="round"/>
<line x1="90" y1="410" x2="75" y2="410" stroke="red" stroke-width="2" stroke-linecap="round"/>
<line x1="70" y1="430" x2="55" y2="430" stroke="red" stroke-width="2" stroke-linecap="round"/>

  <rect id="quad" x="50" y="50" height="200" width="200"/>
  <rect id="quad" x="250" y="50" height="200" width="200"/>
  <rect id="quad" x="50" y="250" height="200" width="200"/>
  <rect id="quad" x="250" y="250" height="200" width="200"/>

</svg>
